<svg width="1163" height="141" viewBox="0 0 1163 141" fill="none" xmlns="http://www.w3.org/2000/svg">
<path d="M1039.78 0H1041.52C1044.12 0 1049.22 0.111981 1056.7 0.447925C1057.03 0.447925 1058.55 0.335944 1061.04 0C1067.88 0 1072.21 1.7917 1074.06 5.3751C1087.07 18.5889 1093.58 25.3078 1093.58 25.5317L1095.32 26.8755C1095.86 26.8755 1096.19 26.5396 1096.19 25.9797V7.16681C1096.19 2.68755 1097.49 0.447925 1100.09 0.447925H1104.43C1105.62 0.447925 1107.25 0.335944 1109.2 0C1109.74 0.335944 1110.29 0.447925 1110.94 0.447925C1112.46 0.111981 1113.32 0 1113.54 0L1116.58 0.447925C1118.1 0.111981 1118.96 0 1119.18 0C1122.22 0 1128.4 5.3751 1137.84 16.1253C1154.65 32.8105 1163 41.993 1163 43.8967V135.273C1163 136.953 1162.24 138.073 1160.83 138.857H1130.03C1127.21 138.857 1122 134.378 1114.41 125.419L1101.39 112.429H1100.52L1100.09 115.565V135.273C1100.09 136.953 1099.33 138.073 1097.92 138.857H1076.66C1073.84 138.857 1069.94 135.721 1064.95 129.45C1044.45 108.958 1034.14 97.9837 1034.14 96.304C1033.82 94.7362 1033.71 93.2805 1033.71 91.8247V6.71888C1033.71 2.23963 1035.77 0 1039.78 0ZM1038.05 6.71888V92.7206C1038.05 93.1685 1038.48 93.6164 1039.35 94.0643H1055.4C1056.6 93.7284 1057.14 92.3846 1057.14 90.033V63.1575C1057.14 52.0713 1056.6 41.881 1055.4 32.6986C1055.84 31.4668 1056.27 30.9069 1056.7 30.9069C1058.76 30.9069 1060.72 33.9303 1062.78 39.8654C1080.57 74.9155 1089.68 92.7206 1090.11 93.1685C1091.09 93.7284 1091.96 94.0643 1092.71 94.0643H1117.88C1119.07 93.7284 1119.61 92.3846 1119.61 90.033V10.3023C1119.61 7.05482 1119.18 5.3751 1118.31 5.3751H1101.83C1101.28 5.48709 1100.96 5.71105 1100.96 6.27096V10.3023L1100.52 12.9898C1100.85 13.5497 1100.96 13.9977 1100.96 14.3336L1100.52 17.0212C1100.52 18.5889 1100.63 19.9327 1100.96 21.0525C1100.63 28.2193 1100.52 33.9303 1100.52 38.0737V48.8239C1100.52 51.1755 1100.85 56.6626 1101.39 65.3971L1099.66 66.7409C1098.35 66.6289 1096.08 62.5976 1092.71 54.6469L1067.55 5.82303C1067.01 5.48709 1066.47 5.3751 1065.82 5.3751H1039.35C1038.92 5.3751 1038.48 5.82303 1038.05 6.71888Z" fill="white"/>
<path d="M941.08 2.14313C942.598 2.47907 944.008 2.59105 945.418 2.59105H953.662C956.156 2.59105 959.736 2.47907 964.508 2.14313V2.59105L965.376 2.14313H973.185C981.103 2.14313 985.659 3.82285 987.069 7.07031C1010.82 30.9223 1022.65 43.4642 1022.65 44.696L1023.08 47.3836V64.8527C1023.08 67.2043 1022.32 68.66 1020.91 69.3319H1017.44C1015.38 69.3319 1014.19 69.7799 1013.97 70.6757C1018.63 74.707 1020.91 78.8503 1020.91 83.2176V96.6554C1020.91 101.471 1019.72 103.822 1017.44 103.822C1014.51 103.822 1013.1 104.158 1013.1 104.718C1019.5 111.885 1022.65 115.804 1022.65 116.364C1022.97 116.924 1023.08 117.596 1023.08 118.604V136.969C1023.08 139.656 1021.89 141 1019.61 141H967.545C965.267 141 957.892 133.833 945.418 119.5C944.876 119.5 939.019 113.565 927.63 101.583C925.894 100.239 925.027 98.3351 925.027 95.7595V7.51823C925.027 4.27077 926.328 2.59105 928.931 2.59105H937.175C938.693 2.59105 939.995 2.47907 941.08 2.14313ZM929.365 8.86201V94.8637C929.365 95.3116 929.799 95.7595 930.667 96.2075H977.958C978.392 96.2075 978.826 95.7595 979.259 94.8637V79.6342C978.934 78.7384 978.066 78.2904 976.656 78.2904H954.529C952.469 78.2904 951.492 77.2826 951.492 75.155V72.4674C951.492 69.8918 951.384 67.2043 951.058 64.4048C951.384 60.8214 952.143 59.0297 953.228 59.0297H974.053C976.331 59.0297 977.524 58.1338 977.524 56.3421V43.8002C977.524 42.0085 976.331 41.1126 974.053 41.1126H953.228C952.143 41.1126 951.384 39.3209 951.058 35.7375C951.384 31.8182 951.492 28.4587 951.492 25.8832L953.228 24.5394H976.656C978.175 24.5394 979.043 24.0915 979.259 23.1956V8.41408C979.259 7.85418 978.934 7.51823 978.392 7.51823H930.667C930.233 7.51823 929.799 7.96616 929.365 8.86201Z" fill="white"/>
<path d="M812.656 3.039H873.831C877.844 3.039 882.183 6.0625 886.847 11.9975L910.709 36.6334C915.916 41.2246 918.519 44.4721 918.519 46.4878V66.6444C918.519 68.7721 917.543 69.7799 915.482 69.7799H899.863C898.127 69.7799 897.259 70.6757 897.259 72.4674V137.417C897.259 139.768 895.849 141 892.921 141H870.36C867.54 141 862.334 136.521 854.741 127.562C837.061 109.981 828.275 100.575 828.275 99.343C827.95 96.3195 827.842 93.8559 827.842 92.1762V52.7587C827.625 50.4071 820.683 42.6804 807.016 29.4666C806.474 26.779 806.148 24.8754 806.148 23.6436V7.96618C806.148 4.71872 808.318 3.039 812.656 3.039ZM810.487 11.1017V21.4039C810.487 24.0915 811.897 25.4353 814.826 25.4353H828.709C830.77 25.4353 831.746 26.4431 831.746 28.5708V91.2803C831.746 94.5278 832.18 96.2075 833.048 96.2075H852.572C853.006 96.2075 853.439 95.7596 853.873 94.8637V28.5708C853.873 26.4431 854.849 25.4353 856.91 25.4353H870.36C873.831 25.4353 875.566 24.4274 875.566 22.2998V11.1017C875.566 8.41411 874.265 7.07033 871.662 7.07033H814.392C811.789 7.07033 810.487 8.41411 810.487 11.1017Z" fill="white"/>
<path d="M626.605 2.14313C628.558 2.47907 630.185 2.59105 631.378 2.59105H633.113C635.391 2.59105 638.428 2.47907 642.224 2.14313C642.767 2.47907 643.201 2.59105 643.526 2.59105L646.129 2.14313C649.492 2.14313 654.156 5.72653 660.013 12.8933C679.97 32.826 690.058 43.6882 690.383 45.5919V71.1236C690.383 85.0093 690.492 102.142 690.817 122.635C690.492 125.211 690.383 129.466 690.383 135.625C690.708 136.185 690.817 136.633 690.817 136.969C690.817 138.424 689.949 139.768 688.214 141H663.917C661.206 141 656.867 137.417 650.902 130.25C631.269 110.877 621.399 100.127 621.399 97.9992V16.0288C621.399 14.3491 621.291 12.3334 620.965 9.75786C620.965 4.7187 622.809 2.14313 626.605 2.14313ZM625.304 10.2058V92.6241C625.304 94.9757 626.171 96.2075 627.907 96.2075H645.261C646.455 95.8715 646.997 94.5277 646.997 92.1761V11.1016C646.997 8.86201 646.563 7.63021 645.695 7.51823H626.605C625.738 7.85418 625.304 8.75003 625.304 10.2058Z" fill="white"/>
<path d="M521.285 1.69519H533.433C536.145 1.69519 538.857 1.80717 541.677 2.14312C542.87 1.80717 545.039 1.69519 548.185 1.69519C552.306 1.69519 557.513 5.8385 563.804 14.2371C564.563 14.3491 569.661 19.5002 578.989 29.4666C589.727 39.3209 595.042 46.4877 595.042 50.967C603.177 75.3789 612.396 104.494 622.809 138.312V139.208C622.809 139.656 622.267 140.216 621.074 141H593.74C591.679 141 586.256 135.961 577.253 125.771C575.626 124.539 574.325 123.979 573.349 123.979H564.238C562.828 123.979 561.092 128.906 559.031 138.76C557.513 140.216 556.211 141 555.126 141H529.529C527.142 141 523.78 138.312 519.55 132.937C498.182 111.549 487.444 100.239 487.444 98.895V96.6554C500.46 54.5504 510.33 23.5315 516.947 3.48689C518.14 2.2551 519.658 1.69519 521.285 1.69519ZM492.65 95.3116L493.952 96.2074H513.476C515.753 96.2074 517.272 93.6319 517.814 88.5927C519.224 81.9858 521.177 78.7383 523.455 78.7383L526.058 79.1863C528.119 79.1863 529.203 79.0743 529.529 78.7383C532.023 79.0743 533.976 79.1863 535.603 79.1863H541.243L543.846 78.7383C544.388 79.0743 544.822 79.1863 545.148 79.1863L548.185 78.7383C550.571 78.7383 552.415 83.1056 553.825 91.7282C554.91 94.7517 555.777 96.2074 556.428 96.2074H577.253C577.687 96.2074 578.121 95.7595 578.555 94.8637C563.478 47.2716 554.259 18.2684 550.788 7.96615C550.029 7.40624 549.595 7.07029 549.486 7.07029H522.587C520.201 7.07029 518.14 11.1016 516.513 19.1643C511.632 33.7219 503.605 59.1416 492.65 95.3116ZM534.735 22.2998H535.603C537.013 22.2998 538.748 28.1228 540.809 39.7688C542.544 45.1439 544.171 51.4149 545.582 58.5817C545.039 60.3734 543.846 61.2693 542.111 61.2693H528.661C527.034 61.2693 526.058 60.7094 525.624 59.4776V58.5817C530.505 38.3131 533 27.5629 533 26.3311C533 24.0915 533.542 22.7477 534.735 22.2998Z" fill="white"/>
<path d="M377.568 3.039H437.441C442.431 3.039 446.661 5.61457 450.023 10.6537C472.042 32.7141 482.997 44.3601 482.997 45.5919C483.322 48.1675 483.431 50.1832 483.431 51.8629V57.6859C483.431 62.0532 481.37 66.5324 477.357 71.1237C467.812 84.8974 463.039 92.2881 463.039 93.5199V93.9679C476.597 107.966 483.431 115.356 483.431 116.364C483.431 116.476 483.539 117.148 483.865 118.156C483.865 119.052 483.756 119.5 483.431 119.5L483.865 124.875V138.76C483.214 140.216 481.804 141 479.526 141H414.013C409.349 141 404.685 137.529 400.129 130.698C399.37 130.698 394.381 125.659 384.944 115.468C374.857 105.726 369.759 99.9029 369.759 97.9992V82.7697C369.759 81.314 376.701 70.5638 390.584 50.5191C390.584 48.8394 386.68 44.3601 378.87 37.0813C373.338 31.4823 370.627 27.8989 370.627 26.3311V7.07033C370.627 4.38278 372.904 3.039 377.568 3.039ZM374.965 10.6537L375.399 11.5496L374.965 14.2371C375.291 17.0367 375.399 19.7242 375.399 22.2998V24.0915C375.399 24.6514 376.267 25.0993 378.002 25.4353C382.775 25.0993 386.354 24.9873 388.849 24.9873C392.645 24.9873 397.201 25.0993 402.732 25.4353C404.576 25.0993 406.529 24.9873 408.373 24.9873C410.108 25.5473 410.976 26.2191 410.976 26.779C410.976 28.1228 404.793 37.6412 392.32 55.4463C379.846 73.4753 373.664 83.1057 373.664 84.1135V92.6241C373.664 94.7517 374.098 95.9835 374.965 96.2075H381.039C383.859 96.2075 385.269 96.3195 385.378 96.6554C387.873 96.3195 389.825 96.2075 391.452 96.2075H439.177C440.045 95.9835 440.478 94.7517 440.478 92.6241V81.4259C440.478 79.2983 439.502 78.2905 437.441 78.2905H404.034C403.6 78.2905 403.166 77.8425 402.732 76.9467V76.4988C402.732 75.267 409.783 64.5168 423.992 44.2481C434.73 28.9067 440.045 20.5081 440.045 19.1643V8.86203C439.719 7.63024 438.418 7.07033 436.14 7.07033H378.87C376.267 7.07033 374.965 8.30212 374.965 10.6537Z" fill="white"/>
<path d="M235.045 2.14313H236.78C239.383 2.14313 244.481 2.25511 251.965 2.59105C252.291 2.59105 253.809 2.47907 256.304 2.14313C263.137 2.14313 267.476 3.93483 269.32 7.51823C282.336 20.732 288.844 27.4509 288.844 27.6749L290.579 29.0187C291.121 29.0187 291.447 28.6827 291.447 28.1228V9.30993C291.447 4.83068 292.748 2.59105 295.352 2.59105H299.69C300.883 2.59105 302.51 2.47907 304.463 2.14313C305.005 2.47907 305.547 2.59105 306.198 2.59105C307.717 2.25511 308.584 2.14313 308.801 2.14313L311.838 2.59105C313.357 2.25511 314.225 2.14313 314.442 2.14313C317.479 2.14313 323.661 7.51823 333.098 18.2684C349.91 34.9537 358.262 44.1361 358.262 46.0398V137.417C358.262 139.096 357.502 140.216 356.092 141H325.288C322.468 141 317.262 136.521 309.669 127.562L296.653 114.572H295.785L295.352 117.708V137.417C295.352 139.096 294.592 140.216 293.182 141H271.923C269.103 141 265.198 137.865 260.209 131.594C239.709 111.101 229.405 100.127 229.405 98.4471C229.079 96.8793 228.971 95.4236 228.971 93.9678V8.86201C228.971 4.38275 231.032 2.14313 235.045 2.14313ZM233.309 8.86201V94.8637C233.309 95.3116 233.743 95.7595 234.611 96.2075H250.664C251.857 95.8715 252.399 94.5277 252.399 92.1761V65.3006C252.399 54.2145 251.857 44.0242 250.664 34.8417C251.098 33.6099 251.532 33.05 251.965 33.05C254.026 33.05 255.979 36.0735 258.039 42.0085C275.828 77.0586 284.939 94.8637 285.373 95.3116C286.349 95.8715 287.217 96.2075 287.976 96.2075H313.14C314.333 95.8715 314.875 94.5277 314.875 92.1761V12.4454C314.875 9.19795 314.442 7.51823 313.574 7.51823H297.087C296.545 7.63021 296.219 7.85418 296.219 8.41408V12.4454L295.785 15.133C296.111 15.6929 296.219 16.1408 296.219 16.4767L295.785 19.1643C295.785 20.732 295.894 22.0758 296.219 23.1956C295.894 30.3624 295.785 36.0735 295.785 40.2168V50.967C295.785 53.3186 296.111 58.8057 296.653 67.5402L294.918 68.884C293.616 68.772 291.338 64.7407 287.976 56.79L262.812 7.96616C262.27 7.63021 261.727 7.51823 261.076 7.51823H234.611C234.177 7.51823 233.743 7.96616 233.309 8.86201Z" fill="white"/>
<path d="M136.341 2.14313C137.86 2.47907 139.27 2.59105 140.68 2.59105H148.923C151.418 2.59105 154.997 2.47907 159.77 2.14313V2.59105L160.637 2.14313H168.447C176.365 2.14313 180.92 3.82285 182.331 7.07031C206.084 30.9223 217.907 43.4642 217.907 44.696L218.341 47.3836V64.8527C218.341 67.2043 217.582 68.66 216.172 69.3319H212.701C210.64 69.3319 209.447 69.7799 209.23 70.6757C213.894 74.707 216.172 78.8503 216.172 83.2176V96.6554C216.172 101.471 214.979 103.822 212.701 103.822C209.772 103.822 208.362 104.158 208.362 104.718C214.762 111.885 217.907 115.804 217.907 116.364C218.233 116.924 218.341 117.596 218.341 118.604V136.969C218.341 139.656 217.148 141 214.87 141H162.807C160.529 141 153.153 133.833 140.68 119.5C140.137 119.5 134.28 113.565 122.891 101.583C121.156 100.239 120.288 98.3351 120.288 95.7595V7.51823C120.288 4.27077 121.59 2.59105 124.193 2.59105H132.436C133.955 2.59105 135.256 2.47907 136.341 2.14313ZM124.627 8.86201V94.8637C124.627 95.3116 125.061 95.7595 125.928 96.2075H173.219C173.653 96.2075 174.087 95.7595 174.521 94.8637V79.6342C174.196 78.7384 173.328 78.2904 171.918 78.2904H149.791C147.73 78.2904 146.754 77.2826 146.754 75.155V72.4674C146.754 69.8918 146.645 67.2043 146.32 64.4048C146.645 60.8214 147.405 59.0297 148.489 59.0297H169.315C171.592 59.0297 172.786 58.1338 172.786 56.3421V43.8002C172.786 42.0085 171.592 41.1126 169.315 41.1126H148.489C147.405 41.1126 146.645 39.3209 146.32 35.7375C146.645 31.8182 146.754 28.4587 146.754 25.8832L148.489 24.5394H171.918C173.436 24.5394 174.304 24.0915 174.521 23.1956V8.41408C174.521 7.85418 174.196 7.51823 173.653 7.51823H125.928C125.495 7.51823 125.061 7.96616 124.627 8.86201Z" fill="white"/>
<path d="M3.4709 2.14313C9.21957 2.47907 13.5582 2.59105 16.4868 2.59105H34.709C52.8227 2.59105 65.4047 7.96616 72.455 18.7164C97.0766 43.3523 109.333 56.4541 109.333 58.1338C110.743 62.2771 111.503 65.5246 111.503 67.9882V69.3319C111.503 76.7227 108.791 83.1056 103.259 88.5927C109.767 95.8715 113.13 102.03 113.238 106.958C113.563 107.965 113.672 109.533 113.672 111.437C113.672 117.596 111.177 123.867 106.296 130.25C98.9205 136.857 91.6534 140.104 84.6031 140.104C84.6031 140.664 82.8677 141 79.3968 141H42.9523C40.2407 141 36.119 137.529 30.8042 130.698C10.5212 110.429 0.433862 99.6789 0.433862 98.4471C0.108466 96.5434 0 94.5277 0 92.6241V11.1016C0 5.16662 1.19312 2.14313 3.4709 2.14313ZM3.90476 11.5496V92.1761C3.90476 94.5277 4.44709 95.8715 5.64021 96.2075H36.8783C54.3412 96.2075 65.0793 89.9365 68.9841 77.3946C69.6349 73.2513 70.0687 71.1236 70.2857 71.1236C70.2857 61.6052 66.7063 55.2223 59.4391 51.8628C56.8359 51.191 55.5343 50.4071 55.5343 49.6232C55.5343 47.7195 57.7037 45.9278 62.0423 44.2481C66.0555 39.8808 68.1163 34.9537 68.1163 29.4666C68.1163 20.3961 64.6454 14.2371 57.7037 11.1016C55.2089 9.86984 50.5449 8.63805 43.8201 7.51823H5.64021C4.44709 7.85418 3.90476 9.19795 3.90476 11.5496ZM30.3703 23.6435H34.709C40.0238 23.6435 43.4947 25.4352 45.1217 29.0187L45.9894 32.1541C45.9894 38.761 40.8915 42.0085 30.8042 42.0085H29.5026C27.8756 42.0085 26.791 41.2246 26.0317 39.7689V27.2269C26.0317 24.8753 27.4418 23.6435 30.3703 23.6435ZM29.5026 57.6859H35.1428C41.9762 57.6859 46.0978 60.7094 47.291 66.6444V69.3319C47.291 75.3789 43.2777 78.6264 35.1428 79.1863H28.201C27.7672 79.1863 27.0079 78.4024 26.0317 76.9467V59.9255C26.791 58.4697 27.8756 57.6859 29.5026 57.6859Z" fill="white"/>
<g filter="url(#filter0_d_50_145)">
<path d="M774.968 66.1409C750.477 86.5203 716.785 77.4908 703 70.4286C721.261 87.5797 753.753 95.903 787.052 93.633C820.351 91.363 805.581 40.6666 774.968 66.1409Z" fill="white"/>
<path d="M774.968 66.1409C750.477 86.5203 716.785 77.4908 703 70.4286C721.261 87.5797 753.753 95.903 787.052 93.633C820.351 91.363 805.581 40.6666 774.968 66.1409Z" stroke="white"/>
</g>
<g filter="url(#filter1_d_50_145)">
<path d="M782.436 68.6653C770.355 81.4785 744.736 87.8023 738 84.9142C746.923 91.928 776.421 91.4584 791.242 84.9142C806.87 78.0134 796.275 53.9881 782.436 68.6653Z" fill="#033A40"/>
<path d="M782.436 68.6653C770.355 81.4785 744.736 87.8023 738 84.9142C746.923 91.928 776.421 91.4584 791.242 84.9142C806.87 78.0134 796.275 53.9881 782.436 68.6653Z" stroke="#033A40"/>
</g>
<defs>
<filter id="filter0_d_50_145" x="698.658" y="58.4996" width="111.842" height="44.0002" filterUnits="userSpaceOnUse" color-interpolation-filters="sRGB">
<feFlood flood-opacity="0" result="BackgroundImageFix"/>
<feColorMatrix in="SourceAlpha" type="matrix" values="0 0 0 0 0 0 0 0 0 0 0 0 0 0 0 0 0 0 127 0" result="hardAlpha"/>
<feOffset dy="4"/>
<feGaussianBlur stdDeviation="2"/>
<feComposite in2="hardAlpha" operator="out"/>
<feColorMatrix type="matrix" values="0 0 0 0 0 0 0 0 0 0 0 0 0 0 0 0 0 0 0.25 0"/>
<feBlend mode="normal" in2="BackgroundImageFix" result="effect1_dropShadow_50_145"/>
<feBlend mode="normal" in="SourceGraphic" in2="effect1_dropShadow_50_145" result="shape"/>
</filter>
<filter id="filter1_d_50_145" x="733.691" y="63.4999" width="69.808" height="35.0001" filterUnits="userSpaceOnUse" color-interpolation-filters="sRGB">
<feFlood flood-opacity="0" result="BackgroundImageFix"/>
<feColorMatrix in="SourceAlpha" type="matrix" values="0 0 0 0 0 0 0 0 0 0 0 0 0 0 0 0 0 0 127 0" result="hardAlpha"/>
<feOffset dy="4"/>
<feGaussianBlur stdDeviation="2"/>
<feComposite in2="hardAlpha" operator="out"/>
<feColorMatrix type="matrix" values="0 0 0 0 0 0 0 0 0 0 0 0 0 0 0 0 0 0 0.25 0"/>
<feBlend mode="normal" in2="BackgroundImageFix" result="effect1_dropShadow_50_145"/>
<feBlend mode="normal" in="SourceGraphic" in2="effect1_dropShadow_50_145" result="shape"/>
</filter>
</defs>
</svg>
