<svg width="55" height="63" viewBox="0 0 55 63" fill="none" xmlns="http://www.w3.org/2000/svg">
<path fill-rule="evenodd" clip-rule="evenodd" d="M23.5356 5.20112C21.9124 4.16473 19.988 3.59905 16.1611 4.43405C14.2716 4.84629 12.791 6.58027 12.1342 8.86453C11.5615 10.8561 11.2882 13.3316 11.0044 15.9024C10.9627 16.2808 10.9207 16.6612 10.8775 17.0425C10.5411 20.0105 9.93299 21.5925 8.97934 24.0527C8.02487 26.515 5.46489 29.5161 4.20038 30.6087C2.93587 31.7013 8.03249 26.4954 8.97934 24.0527C9.927 21.608 10.4401 19.9989 10.7766 17.0296C10.8198 16.649 10.8617 16.2688 10.9035 15.8905C11.187 13.3212 11.4615 10.8346 12.037 8.83298C12.6975 6.53613 13.7601 4.85841 15.705 4.43405C19.5468 3.59582 21.9353 4.05346 23.5879 5.10859C25.1524 6.10755 26.425 7.34227 26.9898 8.96682C27.0361 9.04578 27.0453 9.21235 27.0914 9.29067C27.1516 9.39314 27.139 9.56404 27.1739 9.74557C27.209 9.92792 27.2337 10.1505 27.2495 10.4098C27.2811 10.9284 27.2775 11.5983 27.2485 12.3956C27.1911 13.977 27.0339 16.0653 26.8521 18.4787L26.8476 18.539C26.4802 23.4181 26.0153 29.6178 26.0693 35.6636C26.1232 41.7108 26.6962 47.5968 28.4006 51.8514C29.2525 53.978 30.3857 55.6934 31.8748 56.8186C33.3629 57.943 36.3646 59.0964 38.6518 58.8614C46.0012 58.1062 46.6647 55.0694 48.4573 52.8789C50.2469 50.6921 51.5341 44.5282 50.7804 43.0063C50.7804 43.0063 50.5439 41.118 50.8703 42.956C51.1966 44.7941 50.3554 50.724 48.534 52.9497C46.7157 55.1716 46.0199 58.2127 38.6616 58.9688C36.3527 59.2061 33.326 58.0476 31.8159 56.9065C30.3068 55.7662 29.1637 54.0319 28.3071 51.8937C26.5945 47.6185 26.0217 41.7145 25.9677 35.6646C25.9137 29.6133 26.3789 23.4089 26.7463 18.5304L26.7507 18.4723C26.9326 16.0571 27.0897 13.9706 27.147 12.3914C27.1759 11.5954 27.1794 10.9298 27.1481 10.4168C27.1325 10.1603 27.1082 9.94297 27.0744 9.76718C27.0404 9.59058 26.9976 9.45969 26.9467 9.37325C26.1238 7.05216 26.4375 7.68939 26.3071 7.99834C25.207 6.34381 25.0785 6.18628 23.5356 5.20112Z" fill="#66C4D9"/>
<path d="M8.97934 24.0527C9.93299 21.5925 10.5411 20.0105 10.8775 17.0425C10.9207 16.6612 10.9627 16.2808 11.0044 15.9024C11.2882 13.3316 11.5615 10.8561 12.1342 8.86453C12.791 6.58027 14.2716 4.84629 16.1611 4.43405C19.988 3.59905 21.9124 4.16473 23.5356 5.20112C25.0785 6.18628 25.207 6.34381 26.3071 7.99834C26.4375 7.68939 26.1238 7.05216 26.9467 9.37325C26.9976 9.45969 27.0404 9.59058 27.0744 9.76718C27.1082 9.94297 27.1325 10.1603 27.1481 10.4168C27.1794 10.9298 27.1759 11.5954 27.147 12.3914C27.0897 13.9706 26.9326 16.0571 26.7507 18.4723L26.7463 18.5304C26.3789 23.4089 25.9137 29.6133 25.9677 35.6646C26.0217 41.7145 26.5945 47.6185 28.3071 51.8937C29.1637 54.0319 30.3068 55.7662 31.8159 56.9065C33.326 58.0476 36.3527 59.2061 38.6616 58.9688C46.0199 58.2127 46.7157 55.1716 48.534 52.9497C50.3554 50.724 51.1966 44.7941 50.8703 42.956C50.5439 41.118 50.7804 43.0063 50.7804 43.0063C51.5341 44.5282 50.2469 50.6921 48.4573 52.8789C46.6647 55.0694 46.0012 58.1062 38.6518 58.8614C36.3646 59.0964 33.3629 57.943 31.8748 56.8186C30.3857 55.6934 29.2525 53.978 28.4006 51.8514C26.6962 47.5968 26.1232 41.7108 26.0693 35.6636C26.0153 29.6178 26.4802 23.4181 26.8476 18.539L26.8521 18.4787C27.0339 16.0653 27.1911 13.977 27.2485 12.3956C27.2775 11.5983 27.2811 10.9284 27.2495 10.4098C27.2337 10.1505 27.209 9.92792 27.1739 9.74557C27.139 9.56404 27.1516 9.39314 27.0914 9.29067C27.0453 9.21235 27.0361 9.04578 26.9898 8.96682C26.425 7.34227 25.1524 6.10755 23.5879 5.10859C21.9353 4.05346 19.5468 3.59582 15.705 4.43405C13.7601 4.85841 12.6975 6.53613 12.037 8.83298C11.4615 10.8346 11.187 13.3212 10.9035 15.8905C10.8617 16.2688 10.8198 16.649 10.7766 17.0296C10.4401 19.9989 9.927 21.608 8.97934 24.0527ZM8.97934 24.0527C8.02487 26.515 5.46489 29.5161 4.20038 30.6087C2.93587 31.7013 8.03249 26.4954 8.97934 24.0527Z" stroke="#66C4D9" stroke-width="8"/>
<path d="M17.8935 19.8518C16.8592 22.5724 13.7482 27.7154 17.627 27.7364C21.5058 27.7574 18.7501 22.3876 17.8935 19.8518Z" fill="#66C4D9" stroke="#66C4D9"/>
</svg>
